<svg width="22" height="22" viewBox="0 0 22 22" fill="none" xmlns="http://www.w3.org/2000/svg">
<path d="M10.7994 21.4695C8.70275 21.4695 6.65319 20.8497 4.90989 19.6883C3.16658 18.527 1.80785 16.8763 1.00549 14.9451C0.203141 13.0139 -0.00679165 10.8888 0.402245 8.83863C0.811281 6.78844 1.82091 4.90523 3.30347 3.42713C4.78603 1.94903 6.67492 0.942435 8.73128 0.534628C10.7876 0.126821 12.9191 0.336122 14.8562 1.13606C16.7932 1.93601 18.4489 3.29066 19.6137 5.02872C20.7785 6.76678 21.4003 8.81019 21.4003 10.9005C21.4003 13.7036 20.2834 16.3919 18.2953 18.3739C16.3073 20.356 13.6109 21.4695 10.7994 21.4695ZM10.7994 1.33812C8.90243 1.33812 7.04806 1.89894 5.47079 2.94968C3.89352 4.00041 2.66419 5.49385 1.93825 7.24116C1.21231 8.98846 1.02237 10.9111 1.39245 12.7661C1.76253 14.621 2.67601 16.3249 4.01737 17.6622C5.35873 18.9995 7.06772 19.9102 8.92824 20.2792C10.7888 20.6482 12.7172 20.4588 14.4698 19.7351C16.2224 19.0113 17.7203 17.7857 18.7742 16.2131C19.8281 14.6406 20.3906 12.7918 20.3906 10.9005C20.3748 8.36931 19.3592 5.94627 17.5639 4.15639C15.7686 2.36651 13.3383 1.35396 10.7994 1.33812Z" fill="#757575"/>
<path d="M10.1169 12.7567C10.0853 12.3763 10.1549 11.9943 10.3188 11.6494C10.4478 11.3273 10.6174 11.0229 10.8236 10.7435L11.6313 9.93826C11.7928 9.78129 11.9208 9.59335 12.0076 9.38577C12.0943 9.17819 12.1381 8.95525 12.1361 8.73038C12.1443 8.37138 12.0383 8.01902 11.8332 7.72381C11.5371 7.51937 11.1837 7.41367 10.8236 7.42184C10.4657 7.42806 10.1163 7.53254 9.81403 7.72381C9.62427 7.98868 9.51875 8.30431 9.51115 8.62972H8.40059C8.38862 8.34004 8.44656 8.05172 8.56954 7.78899C8.69252 7.52627 8.87694 7.2968 9.10731 7.11986C9.59376 6.7296 10.1992 6.51654 10.8236 6.51592C11.4508 6.49963 12.062 6.71468 12.54 7.11986C12.7595 7.32294 12.9285 7.57422 13.0337 7.85377C13.1388 8.13333 13.1772 8.43347 13.1457 8.73038C13.1214 9.49474 12.7948 10.2185 12.2371 10.7435L11.6313 11.4481C11.3191 11.8146 11.1411 12.276 11.1265 12.7567H10.1169ZM10.016 14.6691C10.0174 14.5913 10.0364 14.5147 10.0713 14.4451C10.1062 14.3754 10.1563 14.3144 10.2179 14.2665C10.3561 14.1405 10.5355 14.069 10.7227 14.0652C10.9099 14.069 11.0893 14.1405 11.2275 14.2665C11.3339 14.3774 11.4042 14.5177 11.4294 14.6691C11.4279 14.747 11.409 14.8235 11.3741 14.8932C11.3391 14.9629 11.2891 15.0239 11.2275 15.0718C11.1479 15.1482 11.0522 15.2059 10.9474 15.2407C10.8426 15.2755 10.7314 15.2866 10.6217 15.2731C10.5413 15.2765 10.461 15.2632 10.3859 15.2341C10.3109 15.2049 10.2427 15.1606 10.1858 15.1038C10.1288 15.047 10.0843 14.9791 10.0551 14.9042C10.0258 14.8294 10.0125 14.7494 10.016 14.6691Z" fill="#757575"/>
</svg>
