<svg width="17" height="15" viewBox="0 0 17 15" fill="none" xmlns="http://www.w3.org/2000/svg">
<path d="M1.14438 0.00171393H15.2788C15.4135 -0.0063584 15.5484 0.0141477 15.6746 0.0618772C15.8007 0.109607 15.9153 0.183474 16.0107 0.278603C16.1061 0.373732 16.1802 0.487958 16.2281 0.613739C16.276 0.73952 16.2965 0.873994 16.2885 1.00828V1.00828C16.2965 1.14257 16.276 1.27705 16.2281 1.40283C16.1802 1.52861 16.1061 1.64284 16.0107 1.73797C15.9153 1.83309 15.8007 1.90696 15.6746 1.95469C15.5484 2.00242 15.4135 2.02293 15.2788 2.01485H1.14438C1.00969 2.02293 0.874808 2.00242 0.748648 1.95469C0.622488 1.90696 0.507919 1.83309 0.412503 1.73797C0.317088 1.64284 0.242992 1.52861 0.195119 1.40283C0.147245 1.27705 0.126679 1.14257 0.134776 1.00828V1.00828C0.126679 0.873994 0.147245 0.73952 0.195119 0.613739C0.242992 0.487958 0.317088 0.373732 0.412503 0.278603C0.507919 0.183474 0.622488 0.109607 0.748648 0.0618772C0.874808 0.0141477 1.00969 -0.0063584 1.14438 0.00171393V0.00171393Z" fill="white"/>
<path d="M1.14438 6.04114H15.2788C15.4135 6.03307 15.5484 6.05358 15.6746 6.10131C15.8007 6.14904 15.9153 6.2229 16.0107 6.31803C16.1061 6.41316 16.1802 6.52739 16.2281 6.65317C16.276 6.77895 16.2965 6.91342 16.2885 7.04771V7.04771C16.2965 7.182 16.276 7.31648 16.2281 7.44226C16.1802 7.56804 16.1061 7.68227 16.0107 7.77739C15.9153 7.87252 15.8007 7.94639 15.6746 7.99412C15.5484 8.04185 15.4135 8.06236 15.2788 8.05428H1.14438C1.00969 8.06236 0.874808 8.04185 0.748648 7.99412C0.622488 7.94639 0.507919 7.87252 0.412503 7.77739C0.317088 7.68227 0.242992 7.56804 0.195119 7.44226C0.147245 7.31648 0.126679 7.182 0.134776 7.04771V7.04771C0.126679 6.91342 0.147245 6.77895 0.195119 6.65317C0.242992 6.52739 0.317088 6.41316 0.412503 6.31803C0.507919 6.2229 0.622488 6.14904 0.748648 6.10131C0.874808 6.05358 1.00969 6.03307 1.14438 6.04114V6.04114Z" fill="white"/>
<path d="M1.14438 12.0806H15.2788C15.4135 12.0725 15.5484 12.093 15.6746 12.1407C15.8007 12.1885 15.9153 12.2623 16.0107 12.3575C16.1061 12.4526 16.1802 12.5668 16.2281 12.6926C16.276 12.8184 16.2965 12.9529 16.2885 13.0871V13.0871C16.2965 13.2214 16.276 13.3559 16.2281 13.4817C16.1802 13.6075 16.1061 13.7217 16.0107 13.8168C15.9153 13.912 15.8007 13.9858 15.6746 14.0335C15.5484 14.0813 15.4135 14.1018 15.2788 14.0937H1.14438C1.00969 14.1018 0.874808 14.0813 0.748648 14.0335C0.622488 13.9858 0.507919 13.912 0.412503 13.8168C0.317088 13.7217 0.242992 13.6075 0.195119 13.4817C0.147245 13.3559 0.126679 13.2214 0.134776 13.0871V13.0871C0.126679 12.9529 0.147245 12.8184 0.195119 12.6926C0.242992 12.5668 0.317088 12.4526 0.412503 12.3575C0.507919 12.2623 0.622488 12.1885 0.748648 12.1407C0.874808 12.093 1.00969 12.0725 1.14438 12.0806V12.0806Z" fill="white"/>
</svg>
